<svg width="160" height="45" viewBox="0 0 160 45" fill="none"
    xmlns="http://www.w3.org/2000/svg">
    <path d="M5.21965 37.6343H0L9.50345 11.4451H15.5403L25.0569 37.6343H19.8373L12.6273 16.8159H12.4164L5.21965 37.6343ZM5.391 27.3658H19.6264V31.1765H5.391V27.3658Z" fill="black"/>
    <path d="M43.9485 17.9924L36.7385 37.6343H31.4662L24.2562 17.9924H29.344L33.9969 32.5832H34.2078L38.8739 17.9924H43.9485Z" fill="black"/>
    <path d="M50.216 45.0001C49.5658 45.0001 48.9639 44.9489 48.4103 44.8466C47.8654 44.7528 47.4305 44.642 47.1053 44.5141L48.2125 40.908C48.9067 41.1041 49.5262 41.1978 50.0711 41.1893C50.6159 41.1808 51.0948 41.0146 51.5078 40.6906C51.9296 40.3752 52.2854 39.8466 52.5754 39.1049L52.984 38.0435L45.6423 17.9924H50.7037L55.3698 32.8261H55.5807L60.2599 17.9924H65.3346L57.2283 40.0128C56.8504 41.0529 56.3496 41.9438 55.7257 42.6855C55.1018 43.4357 54.3373 44.0069 53.4322 44.399C52.5359 44.7997 51.4638 45.0001 50.216 45.0001Z" fill="black"/>
    <path d="M76.9107 38.018C74.8809 38.018 73.1278 37.6088 71.6515 36.7903C70.1841 35.9634 69.0549 34.7955 68.264 33.2865C67.4732 31.769 67.0777 29.983 67.0777 27.9284C67.0777 25.908 67.4732 24.1348 68.264 22.6088C69.0637 21.0742 70.1797 19.8807 71.612 19.0282C73.0443 18.1671 74.7271 17.7366 76.6603 17.7366C77.9081 17.7366 79.0856 17.9327 80.1928 18.3249C81.3088 18.7085 82.2929 19.3053 83.1453 20.1151C84.0065 20.925 84.6831 21.9566 85.1752 23.2098C85.6673 24.4544 85.9133 25.9378 85.9133 27.6599V29.0793H69.3185V25.9591H81.3395C81.3307 25.0725 81.133 24.2839 80.7464 23.5934C80.3597 22.8943 79.8193 22.3445 79.1251 21.9438C78.4397 21.5431 77.6401 21.3428 76.7262 21.3428C75.7508 21.3428 74.894 21.5729 74.1559 22.0333C73.4178 22.4851 72.8422 23.0819 72.4292 23.8236C72.025 24.5567 71.8185 25.3624 71.8097 26.2405V28.9643C71.8097 30.1066 72.025 31.087 72.4556 31.9054C72.8861 32.7153 73.4881 33.3377 74.2614 33.7724C75.0346 34.1987 75.9397 34.4118 76.9766 34.4118C77.6708 34.4118 78.2991 34.318 78.8615 34.1305C79.4239 33.9344 79.9116 33.6488 80.3246 33.2737C80.7376 32.8986 81.0495 32.434 81.2604 31.8799L85.7156 32.3658C85.4344 33.5082 84.8984 34.5056 84.1075 35.3581C83.3254 36.2021 82.3237 36.8585 81.1023 37.3274C79.8808 37.7878 78.4837 38.018 76.9107 38.018Z" fill="black"/>
    <path d="M94.7215 26.1254V37.6343H89.95V17.9924H94.5106V21.33H94.7478C95.2135 20.2302 95.9561 19.3564 96.9754 18.7085C98.0035 18.0606 99.2733 17.7366 100.785 17.7366C102.182 17.7366 103.399 18.0265 104.436 18.6062C105.481 19.1859 106.29 20.0256 106.861 21.1254C107.441 22.2251 107.727 23.5593 107.718 25.1279V37.6343H102.946V25.844C102.946 24.5312 102.595 23.5039 101.892 22.7622C101.198 22.0205 100.235 21.6497 99.0053 21.6497C98.1705 21.6497 97.4279 21.8287 96.7777 22.1868C96.1362 22.5363 95.6309 23.0435 95.2619 23.7085C94.9016 24.3735 94.7215 25.1791 94.7215 26.1254Z" fill="black"/>
    <path d="M122.678 17.9924V21.5729H111.039V17.9924H122.678ZM113.913 13.2865H118.684V31.7264C118.684 32.3487 118.781 32.8261 118.974 33.1586C119.176 33.4826 119.44 33.7042 119.765 33.8236C120.09 33.9429 120.451 34.0026 120.846 34.0026C121.145 34.0026 121.417 33.9813 121.663 33.9387C121.918 33.896 122.111 33.8577 122.243 33.8236L123.047 37.4425C122.792 37.5278 122.428 37.6215 121.953 37.7238C121.488 37.8261 120.916 37.8858 120.24 37.9029C119.045 37.937 117.968 37.7622 117.01 37.3786C116.053 36.9864 115.292 36.3811 114.73 35.5627C114.177 34.7443 113.904 33.7213 113.913 32.4937V13.2865Z" fill="black"/>
    <path d="M135.414 38.018C133.384 38.018 131.631 37.6088 130.155 36.7903C128.688 35.9634 127.558 34.7955 126.768 33.2865C125.977 31.769 125.581 29.983 125.581 27.9284C125.581 25.908 125.977 24.1348 126.768 22.6088C127.567 21.0742 128.683 19.8807 130.116 19.0282C131.548 18.1671 133.231 17.7366 135.164 17.7366C136.412 17.7366 137.589 17.9327 138.696 18.3249C139.812 18.7085 140.796 19.3053 141.649 20.1151C142.51 20.925 143.187 21.9566 143.679 23.2098C144.171 24.4544 144.417 25.9378 144.417 27.6599V29.0793H127.822V25.9591H139.843C139.834 25.0725 139.637 24.2839 139.25 23.5934C138.863 22.8943 138.323 22.3445 137.629 21.9438C136.943 21.5431 136.144 21.3428 135.23 21.3428C134.254 21.3428 133.398 21.5729 132.659 22.0333C131.921 22.4851 131.346 23.0819 130.933 23.8236C130.529 24.5567 130.322 25.3624 130.313 26.2405V28.9643C130.313 30.1066 130.529 31.087 130.959 31.9054C131.39 32.7153 131.992 33.3377 132.765 33.7724C133.538 34.1987 134.443 34.4118 135.48 34.4118C136.174 34.4118 136.803 34.318 137.365 34.1305C137.927 33.9344 138.415 33.6488 138.828 33.2737C139.241 32.8986 139.553 32.434 139.764 31.8799L144.219 32.3658C143.938 33.5082 143.402 34.5056 142.611 35.3581C141.829 36.2021 140.827 36.8585 139.606 37.3274C138.384 37.7878 136.987 38.018 135.414 38.018Z" fill="black"/>
    <path d="M148.454 37.6343V17.9924H153.08V21.266H153.291C153.66 20.1322 154.293 19.2584 155.189 18.6446C156.094 18.0222 157.127 17.7111 158.286 17.7111C158.55 17.7111 158.844 17.7238 159.17 17.7494C159.504 17.7665 159.78 17.7963 160 17.8389V22.0972C159.798 22.029 159.477 21.9694 159.038 21.9182C158.607 21.8585 158.19 21.8287 157.786 21.8287C156.916 21.8287 156.134 22.012 155.439 22.3786C154.754 22.7366 154.214 23.2354 153.818 23.8747C153.423 24.5141 153.225 25.2515 153.225 26.087V37.6343H148.454Z" fill="black"/>
    <path fill-rule="evenodd" clip-rule="evenodd" d="M66.3661 5.00006H9.52991V0.498779H66.3661V5.00006Z" fill="#FF0000"/>
</svg>
