<svg width="24" height="24" viewBox="0 0 24 24" fill="none"
    xmlns="http://www.w3.org/2000/svg">
    <path d="M7.54752 21.7506C16.6042 21.7506 21.5578 14.2473 21.5578 7.74038C21.5578 7.52726 21.5578 7.3151 21.5434 7.1039C22.507 6.40686 23.3389 5.54379 24 4.5551C23.1014 4.9535 22.148 5.21466 21.1718 5.32982C22.1998 4.71451 22.9692 3.74661 23.3366 2.6063C22.3701 3.17991 21.3126 3.58413 20.2099 3.8015C19.4675 3.01208 18.4856 2.48934 17.4162 2.31419C16.3468 2.13903 15.2494 2.32122 14.294 2.83256C13.3385 3.34389 12.5782 4.15588 12.1307 5.14285C11.6833 6.12983 11.5735 7.23677 11.8186 8.29238C9.8609 8.19418 7.94576 7.68541 6.19745 6.79911C4.44915 5.9128 2.90676 4.66876 1.6704 3.14774C1.04073 4.23174 0.847872 5.51497 1.1311 6.73617C1.41433 7.95736 2.15234 9.0247 3.19488 9.72086C2.41123 9.6979 1.64465 9.4865 0.96 9.10454V9.16694C0.960311 10.3038 1.35385 11.4055 2.07387 12.2853C2.79389 13.1651 3.79606 13.7687 4.9104 13.9938C4.18548 14.1916 3.42487 14.2205 2.68704 14.0783C3.00181 15.0566 3.61443 15.9121 4.43924 16.5252C5.26405 17.1383 6.25983 17.4784 7.28736 17.4978C6.26644 18.3003 5.09731 18.8936 3.84687 19.2438C2.59643 19.594 1.28921 19.6943 0 19.5388C2.25183 20.9838 4.87192 21.7503 7.54752 21.7468" fill="white"/>
</svg>
